<?xml version="1.0" encoding="utf-8"?>
<!-- Generator: Adobe Illustrator 21.1.0, SVG Export Plug-In . SVG Version: 6.00 Build 0)  -->
<svg version="1.1" id="Layer_1" xmlns="http://www.w3.org/2000/svg" xmlns:xlink="http://www.w3.org/1999/xlink" x="0px" y="0px"
	 viewBox="0 0 64 64" style="enable-background:new 0 0 64 64;" xml:space="preserve">
<style type="text/css">
	.st0{fill:#263238;}
	.st1{fill:#FFD740;}
	.st2{fill:#40C4FF;}
	.st3{fill:#FF5252;}
	.st4{fill:#4DB6AC;}
	.st5{fill:#FFFFFF;}
	.st6{fill:#37474F;}
	.st7{fill:#4FC3F7;}
</style>
<g>
	<g>
		<path class="st0" d="M20.5,42.5c-0.276,0-0.5-0.224-0.5-0.5v-4.5c0-0.276,0.224-0.5,0.5-0.5s0.5,0.224,0.5,0.5V42
			C21,42.276,20.776,42.5,20.5,42.5z"/>
	</g>
	<g>
		<path class="st0" d="M14.5,42.5c-0.276,0-0.5-0.224-0.5-0.5v-4.5c0-0.276,0.224-0.5,0.5-0.5s0.5,0.224,0.5,0.5V42
			C15,42.276,14.776,42.5,14.5,42.5z"/>
	</g>
	<g>
		<path class="st1" d="M63.5,45v3c0,0.552-0.448,1-1,1h-61c-0.552,0-1-0.448-1-1v-3c0-0.552,0.448-1,1-1h61
			C63.052,44,63.5,44.448,63.5,45z"/>
		<path class="st0" d="M62.5,49.5h-61C0.673,49.5,0,48.827,0,48v-3c0-0.827,0.673-1.5,1.5-1.5h61c0.827,0,1.5,0.673,1.5,1.5v3
			C64,48.827,63.327,49.5,62.5,49.5z M1.5,44.5C1.224,44.5,1,44.724,1,45v3c0,0.276,0.224,0.5,0.5,0.5h61c0.276,0,0.5-0.224,0.5-0.5
			v-3c0-0.276-0.224-0.5-0.5-0.5H1.5z"/>
	</g>
	<g>
		<path class="st0" d="M8.5,63.5C8.224,63.5,8,63.276,8,63V51c0-0.276,0.224-0.5,0.5-0.5S9,50.724,9,51v12
			C9,63.276,8.776,63.5,8.5,63.5z"/>
	</g>
	<g>
		<path class="st0" d="M4.5,63.5C4.224,63.5,4,63.276,4,63V51c0-0.276,0.224-0.5,0.5-0.5S5,50.724,5,51v12
			C5,63.276,4.776,63.5,4.5,63.5z"/>
	</g>
	<g>
		<path class="st0" d="M59.5,63.5c-0.276,0-0.5-0.224-0.5-0.5V51c0-0.276,0.224-0.5,0.5-0.5S60,50.724,60,51v12
			C60,63.276,59.776,63.5,59.5,63.5z"/>
	</g>
	<g>
		<path class="st0" d="M55.5,63.5c-0.276,0-0.5-0.224-0.5-0.5V51c0-0.276,0.224-0.5,0.5-0.5S56,50.724,56,51v12
			C56,63.276,55.776,63.5,55.5,63.5z"/>
	</g>
	<g>
		<path class="st0" d="M30.5,38h-26c-1.654,0-3-1.346-3-3V18c0-1.654,1.346-3,3-3h26c1.654,0,3,1.346,3,3v17
			C33.5,36.654,32.154,38,30.5,38z M4.5,16c-1.103,0-2,0.897-2,2v17c0,1.103,0.897,2,2,2h26c1.103,0,2-0.897,2-2V18
			c0-1.103-0.897-2-2-2H4.5z"/>
	</g>
	<g>
		<polyline class="st2" points="36.5,42 36.5,30 40.5,30 40.5,42 		"/>
		<path class="st0" d="M40.5,42.5c-0.276,0-0.5-0.224-0.5-0.5V30.5h-3V42c0,0.276-0.224,0.5-0.5,0.5S36,42.276,36,42V30
			c0-0.276,0.224-0.5,0.5-0.5h4c0.276,0,0.5,0.224,0.5,0.5v12C41,42.276,40.776,42.5,40.5,42.5z"/>
	</g>
	<g>
		<polyline class="st2" points="40.5,42 40.5,30 44.5,30 44.5,42 		"/>
		<path class="st0" d="M44.5,42.5c-0.276,0-0.5-0.224-0.5-0.5V30.5h-3V42c0,0.276-0.224,0.5-0.5,0.5S40,42.276,40,42V30
			c0-0.276,0.224-0.5,0.5-0.5h4c0.276,0,0.5,0.224,0.5,0.5v12C45,42.276,44.776,42.5,44.5,42.5z"/>
	</g>
	<g>
		<polyline class="st2" points="44.5,42 44.5,30 48.5,30 48.5,42 		"/>
		<path class="st0" d="M48.5,42.5c-0.276,0-0.5-0.224-0.5-0.5V30.5h-3V42c0,0.276-0.224,0.5-0.5,0.5S44,42.276,44,42V30
			c0-0.276,0.224-0.5,0.5-0.5h4c0.276,0,0.5,0.224,0.5,0.5v12C49,42.276,48.776,42.5,48.5,42.5z"/>
	</g>
	<g>
		<path class="st0" d="M14,3.5h-4C9.724,3.5,9.5,3.276,9.5,3S9.724,2.5,10,2.5h4c0.276,0,0.5,0.224,0.5,0.5S14.276,3.5,14,3.5z"/>
	</g>
	<g>
		<path class="st0" d="M12,5.5c-0.276,0-0.5-0.224-0.5-0.5V1c0-0.276,0.224-0.5,0.5-0.5s0.5,0.224,0.5,0.5v4
			C12.5,5.276,12.276,5.5,12,5.5z"/>
	</g>
	<g>
		<path class="st0" d="M7,10H3c-0.276,0-0.5-0.224-0.5-0.5S2.724,9,3,9h4c0.276,0,0.5,0.224,0.5,0.5S7.276,10,7,10z"/>
	</g>
	<g>
		<path class="st0" d="M5,12c-0.276,0-0.5-0.224-0.5-0.5v-4C4.5,7.224,4.724,7,5,7s0.5,0.224,0.5,0.5v4C5.5,11.776,5.276,12,5,12z"
			/>
	</g>
	<g>
		<path class="st0" d="M30,11.5H20c-0.276,0-0.5-0.224-0.5-0.5s0.224-0.5,0.5-0.5h10c0.276,0,0.5,0.224,0.5,0.5S30.276,11.5,30,11.5
			z"/>
	</g>
	<g>
		<path class="st0" d="M33,11.5h-1c-0.276,0-0.5-0.224-0.5-0.5s0.224-0.5,0.5-0.5h1c0.276,0,0.5,0.224,0.5,0.5S33.276,11.5,33,11.5z
			"/>
	</g>
	<g>
		<path class="st3" d="M52.25,42v-6c0-0.552,0.448-1,1-1h8c0.552,0,1,0.448,1,1v6"/>
		<path class="st0" d="M62.25,42.5c-0.276,0-0.5-0.224-0.5-0.5v-6c0-0.276-0.224-0.5-0.5-0.5h-8c-0.276,0-0.5,0.224-0.5,0.5v6
			c0,0.276-0.224,0.5-0.5,0.5s-0.5-0.224-0.5-0.5v-6c0-0.827,0.673-1.5,1.5-1.5h8c0.827,0,1.5,0.673,1.5,1.5v6
			C62.75,42.276,62.526,42.5,62.25,42.5z"/>
	</g>
	<g>
		<path class="st4" d="M58.75,33v-3.25h0.5c1.93,0,3.5-1.57,3.5-3.5v-0.5c0-0.829-0.671-1.5-1.5-1.5s-1.5,0.671-1.5,1.5v0.5
			c0,0.276-0.224,0.5-0.5,0.5h-0.5V23.5c0-0.829-0.671-1.5-1.5-1.5s-1.5,0.671-1.5,1.5v5.25h-0.5c-0.276,0-0.5-0.224-0.5-0.5v-0.5
			c0-0.829-0.671-1.5-1.5-1.5s-1.5,0.671-1.5,1.5v0.5c0,1.93,1.57,3.5,3.5,3.5h0.5V33"/>
		<path class="st0" d="M58.75,33.5c-0.276,0-0.5-0.224-0.5-0.5v-3.25c0-0.276,0.224-0.5,0.5-0.5h0.5c1.654,0,3-1.346,3-3v-0.5
			c0-0.551-0.449-1-1-1s-1,0.449-1,1v0.5c0,0.551-0.449,1-1,1h-0.5c-0.276,0-0.5-0.224-0.5-0.5V23.5c0-0.551-0.449-1-1-1
			s-1,0.449-1,1v5.25c0,0.276-0.224,0.5-0.5,0.5h-0.5c-0.551,0-1-0.449-1-1v-0.5c0-0.551-0.449-1-1-1s-1,0.449-1,1v0.5
			c0,1.654,1.346,3,3,3h0.5c0.276,0,0.5,0.224,0.5,0.5V33c0,0.276-0.224,0.5-0.5,0.5s-0.5-0.224-0.5-0.5v-0.75c-2.206,0-4-1.794-4-4
			v-0.5c0-1.103,0.897-2,2-2s2,0.897,2,2v0.5V23.5c0-1.103,0.897-2,2-2s2,0.897,2,2v2.75v-0.5c0-1.103,0.897-2,2-2s2,0.897,2,2v0.5
			c0,2.206-1.794,4-4,4V33C59.25,33.276,59.026,33.5,58.75,33.5z"/>
	</g>
	<g>
		<path class="st0" d="M57.5,13.5c-3.584,0-6.5-2.916-6.5-6.5s2.916-6.5,6.5-6.5S64,3.416,64,7S61.084,13.5,57.5,13.5z M57.5,1.5
			C54.467,1.5,52,3.967,52,7s2.467,5.5,5.5,5.5S63,10.033,63,7S60.533,1.5,57.5,1.5z"/>
	</g>
	<g>
		<path class="st0" d="M58,8h-3c-0.276,0-0.5-0.224-0.5-0.5S54.724,7,55,7h2.5V3.5C57.5,3.224,57.724,3,58,3s0.5,0.224,0.5,0.5v4
			C58.5,7.776,58.276,8,58,8z"/>
	</g>
	<g>
		<path class="st0" d="M53.5,59.5H33c-0.827,0-1.5-0.673-1.5-1.5v-7c0-0.276,0.224-0.5,0.5-0.5s0.5,0.224,0.5,0.5v7
			c0,0.276,0.224,0.5,0.5,0.5h20.5c0.276,0,0.5,0.224,0.5,0.5S53.776,59.5,53.5,59.5z"/>
	</g>
	<g>
		<path class="st0" d="M33,34H2c-0.276,0-0.5-0.224-0.5-0.5S1.724,33,2,33h31c0.276,0,0.5,0.224,0.5,0.5S33.276,34,33,34z"/>
	</g>
	<g>
		<path class="st0" d="M30,24c-0.276,0-0.5-0.224-0.5-0.5v-4c0-0.276-0.224-0.5-0.5-0.5h-4c-0.276,0-0.5-0.224-0.5-0.5
			S24.724,18,25,18h4c0.827,0,1.5,0.673,1.5,1.5v4C30.5,23.776,30.276,24,30,24z"/>
	</g>
	<g>
		<path class="st0" d="M45.25,55.5h-5c-0.276,0-0.5-0.224-0.5-0.5s0.224-0.5,0.5-0.5h5c0.276,0,0.5,0.224,0.5,0.5
			S45.526,55.5,45.25,55.5z"/>
	</g>
</g>
</svg>
